<svg width="1920" height="587" viewBox="0 0 1920 587" fill="none" xmlns="http://www.w3.org/2000/svg">
<rect width="2462" height="110" transform="translate(-250.538 187.72) rotate(2.95)" fill="#121215"/>
<path d="M-174.878 233.274L-174.965 234.968C-169.94 235.27 -166.201 236.306 -163.751 238.077C-161.279 239.85 -160.122 242.27 -160.28 245.338C-160.437 248.384 -161.835 250.651 -164.475 252.139C-167.093 253.606 -170.917 254.231 -175.947 254.015L-176.031 255.645L-183.893 255.239L-183.809 253.61C-188.834 253.308 -192.574 252.293 -195.027 250.564C-197.479 248.814 -198.626 246.416 -198.469 243.37C-198.311 240.302 -196.922 238.013 -194.302 236.503C-191.682 234.993 -187.857 234.346 -182.827 234.563L-182.74 232.869L-174.878 233.274ZM-190.32 243.789C-190.383 245.025 -189.867 245.992 -188.771 246.689C-187.675 247.386 -185.924 247.818 -183.519 247.985L-183.125 240.347C-185.535 240.266 -187.321 240.515 -188.483 241.096C-189.645 241.677 -190.257 242.575 -190.32 243.789ZM-175.657 248.39C-173.226 248.473 -171.43 248.224 -170.268 247.643C-169.105 247.062 -168.493 246.153 -168.429 244.918C-168.366 243.703 -168.883 242.747 -169.979 242.05C-171.076 241.353 -172.837 240.92 -175.264 240.752L-175.657 248.39ZM-151.943 234.456L-136.092 235.273L-127.913 258.124L-136.797 257.666L-138.233 253.203L-151.623 252.513L-153.511 256.805L-162.363 256.349L-151.943 234.456ZM-139.97 247.73L-143.944 235.317L-144.072 235.31L-149.301 247.249L-139.97 247.73ZM-117.321 236.24L-117.837 246.243L-106.903 236.777L-97.0919 237.283L-109.229 247.103L-98.1808 259.656L-107.417 259.18L-117.878 247.042L-118.474 258.611L-126.335 258.206L-125.183 235.835L-117.321 236.24ZM-87.6226 243.442L-96.9862 242.96L-96.6947 237.303L-69.9781 238.68L-70.2696 244.337L-79.761 243.847L-80.6223 260.561L-88.4839 260.156L-87.6226 243.442ZM-68.1021 238.777L-60.2406 239.182L-60.5798 245.765L-54.8594 246.06C-51.0884 246.254 -48.2361 247.074 -46.3026 248.52C-44.3467 249.945 -43.4357 251.957 -43.5697 254.556C-43.7025 257.134 -44.8155 259.042 -46.9087 260.28C-48.9794 261.498 -51.9009 262.02 -55.6729 261.847L-69.2549 261.147L-68.1021 238.777ZM-56.0183 256.734C-54.8039 256.797 -53.8219 256.602 -53.0723 256.149C-52.3226 255.697 -51.9226 254.98 -51.8721 254C-51.8227 253.041 -52.1475 252.298 -52.8466 251.771C-53.5458 251.244 -54.5025 250.949 -55.7169 250.886L-60.8301 250.623L-61.1315 256.471L-56.0183 256.734ZM-40.7784 240.185L-32.9168 240.59L-34.0696 262.96L-41.9312 262.555L-40.7784 240.185ZM-8.1399 264.809C-10.8243 264.671 -13.208 264.292 -15.2908 263.672C-17.3726 263.03 -19.1232 262.182 -20.5428 261.126C-21.9399 260.05 -22.9852 258.778 -23.6786 257.311C-24.3497 255.824 -24.638 254.165 -24.5435 252.332C-24.4469 250.458 -23.9884 248.815 -23.1681 247.405C-22.3254 245.974 -21.1538 244.796 -19.6535 243.869C-18.1307 242.922 -16.3016 242.247 -14.166 241.845C-12.0294 241.421 -9.61884 241.278 -6.9344 241.416C-4.24996 241.554 -1.86686 241.944 0.214888 242.586C2.29774 243.206 4.03719 244.064 5.43323 245.162C6.83037 246.238 7.87456 247.53 8.56579 249.04C9.25811 250.528 9.55597 252.21 9.45935 254.085C9.36493 255.917 8.8969 257.538 8.05526 258.947C7.21472 260.335 6.04427 261.492 4.54393 262.419C3.04468 263.324 1.22673 263.989 -0.909919 264.413C-3.04547 264.815 -5.45546 264.947 -8.1399 264.809ZM-16.2665 252.759C-16.3587 254.549 -15.6738 255.972 -14.2116 257.03C-12.7495 258.088 -10.6229 258.689 -7.83194 258.833C-5.04098 258.977 -2.86391 258.598 -1.30075 257.696C0.262413 256.794 1.09011 255.448 1.18233 253.658C1.27785 251.805 0.595079 250.338 -0.865978 249.259C-2.32594 248.158 -4.4514 247.536 -7.24236 247.392C-10.0333 247.248 -12.2115 247.649 -13.7768 248.594C-15.3411 249.517 -16.171 250.905 -16.2665 252.759ZM48.402 244.78L47.2492 267.151L39.3877 266.746L39.7879 258.98L26.11 258.275L25.7098 266.041L17.8482 265.636L19.0011 243.265L26.8626 243.67L26.4163 252.331L40.0942 253.036L40.5405 244.375L48.402 244.78ZM59.2147 245.338L75.0657 246.155L83.2445 269.006L74.3603 268.548L72.9241 264.084L59.5339 263.394L57.6464 267.687L48.7942 267.23L59.2147 245.338ZM71.1874 258.611L67.213 246.198L67.0852 246.192L61.8558 258.131L71.1874 258.611ZM90.6589 258.205C90.559 260.144 91.2816 261.666 92.8268 262.771C94.372 263.876 96.6679 264.507 99.7145 264.664C101.312 264.746 102.927 264.712 104.558 264.561C106.191 264.389 107.754 264.095 109.25 263.681L109.468 269.396C107.952 269.788 106.357 270.069 104.682 270.239C103.007 270.409 101.349 270.451 99.709 270.367C96.8115 270.218 94.2574 269.83 92.0467 269.203C89.836 268.576 87.989 267.734 86.5055 266.674C85.0445 265.595 83.9571 264.311 83.2435 262.821C82.5299 261.332 82.2213 259.65 82.318 257.775C82.4157 255.879 82.896 254.227 83.759 252.819C84.6219 251.411 85.8355 250.245 87.3998 249.321C88.9853 248.399 90.9098 247.74 93.1732 247.344C95.4366 246.948 98.017 246.825 100.914 246.974C102.47 247.054 104.072 247.265 105.72 247.606C107.369 247.947 108.958 248.403 110.488 248.973L109.714 254.669C108.376 254.109 106.893 253.658 105.266 253.318C103.661 252.958 102.017 252.734 100.334 252.648C97.2871 252.491 94.938 252.893 93.2863 253.854C91.6357 254.795 90.7599 256.245 90.6589 258.205Z" fill="#19191C"/>
<path d="M167.667 250.927L167.58 252.62C172.606 252.922 176.344 253.958 178.795 255.73C181.267 257.502 182.424 259.922 182.266 262.99C182.109 266.036 180.71 268.304 178.07 269.791C175.453 271.258 171.629 271.884 166.598 271.667L166.514 273.297L158.653 272.892L158.737 271.262C153.711 270.96 149.972 269.945 147.519 268.217C145.067 266.467 143.919 264.068 144.076 261.022C144.235 257.954 145.623 255.665 148.243 254.155C150.863 252.645 154.688 251.999 159.718 252.215L159.806 250.521L167.667 250.927ZM152.226 261.442C152.162 262.678 152.678 263.644 153.774 264.341C154.871 265.039 156.621 265.471 159.027 265.637L159.42 258C157.011 257.918 155.225 258.168 154.063 258.749C152.901 259.33 152.288 260.227 152.226 261.442ZM166.888 266.043C169.319 266.125 171.116 265.876 172.278 265.295C173.44 264.714 174.053 263.806 174.117 262.57C174.179 261.356 173.662 260.4 172.566 259.702C171.47 259.005 169.708 258.572 167.282 258.405L166.888 266.043ZM190.603 252.109L206.454 252.925L214.633 275.777L205.748 275.319L204.312 270.855L190.922 270.165L189.035 274.457L180.182 274.001L190.603 252.109ZM202.576 265.382L198.601 252.969L198.473 252.963L193.244 264.901L202.576 265.382ZM225.224 253.893L224.709 263.895L235.643 254.43L245.454 254.935L233.316 264.755L244.365 277.309L235.129 276.833L224.668 264.694L224.072 276.263L216.21 275.858L217.363 253.488L225.224 253.893ZM254.923 261.095L245.559 260.612L245.851 254.956L272.567 256.332L272.276 261.989L262.784 261.5L261.923 278.214L254.062 277.808L254.923 261.095ZM274.443 256.429L282.305 256.834L281.966 263.417L287.686 263.712C291.457 263.907 294.309 264.726 296.243 266.172C298.199 267.597 299.11 269.609 298.976 272.209C298.843 274.786 297.73 276.694 295.637 277.932C293.566 279.15 290.645 279.672 286.872 279.499L273.29 278.799L274.443 256.429ZM286.527 274.387C287.742 274.449 288.724 274.254 289.473 273.802C290.223 273.349 290.623 272.633 290.673 271.652C290.723 270.694 290.398 269.951 289.699 269.423C289 268.896 288.043 268.601 286.828 268.538L281.715 268.275L281.414 274.123L286.527 274.387ZM301.767 257.837L309.629 258.242L308.476 280.613L300.614 280.207L301.767 257.837ZM334.406 282.461C331.721 282.323 329.337 281.944 327.255 281.324C325.173 280.683 323.422 279.834 322.003 278.778C320.605 277.702 319.56 276.431 318.867 274.964C318.196 273.477 317.907 271.817 318.002 269.985C318.098 268.11 318.557 266.467 319.377 265.057C320.22 263.626 321.392 262.448 322.892 261.521C324.415 260.574 326.244 259.9 328.379 259.497C330.516 259.073 332.927 258.93 335.611 259.069C338.295 259.207 340.679 259.597 342.76 260.238C344.843 260.858 346.583 261.717 347.979 262.814C349.376 263.89 350.42 265.183 351.111 266.692C351.804 268.181 352.101 269.862 352.005 271.737C351.91 273.569 351.442 275.19 350.601 276.599C349.76 277.987 348.59 279.144 347.089 280.071C345.59 280.976 343.772 281.641 341.635 282.065C339.5 282.468 337.09 282.6 334.406 282.461ZM326.279 270.411C326.187 272.201 326.872 273.625 328.334 274.683C329.796 275.741 331.923 276.342 334.713 276.485C337.504 276.629 339.681 276.25 341.245 275.348C342.808 274.446 343.636 273.1 343.728 271.31C343.823 269.457 343.14 267.99 341.679 266.911C340.219 265.811 338.094 265.188 335.303 265.045C332.512 264.901 330.334 265.301 328.769 266.246C327.204 267.169 326.374 268.558 326.279 270.411ZM390.947 262.433L389.795 284.803L381.933 284.398L382.333 276.632L368.655 275.927L368.255 283.693L360.394 283.288L361.546 260.918L369.408 261.323L368.962 269.983L382.64 270.688L383.086 262.028L390.947 262.433ZM401.76 262.99L417.611 263.807L425.79 286.658L416.906 286.2L415.469 281.736L402.079 281.046L400.192 285.339L391.34 284.883L401.76 262.99ZM413.733 276.264L409.758 263.851L409.631 263.844L404.401 275.783L413.733 276.264ZM433.204 275.857C433.104 277.796 433.827 279.318 435.372 280.423C436.917 281.528 439.213 282.159 442.26 282.316C443.858 282.398 445.472 282.364 447.104 282.213C448.736 282.041 450.3 281.748 451.795 281.333L452.013 287.048C450.498 287.44 448.903 287.721 447.228 287.891C445.553 288.061 443.895 288.104 442.254 288.019C439.357 287.87 436.803 287.482 434.592 286.855C432.381 286.229 430.534 285.386 429.051 284.327C427.59 283.248 426.503 281.963 425.789 280.474C425.075 278.984 424.767 277.302 424.863 275.428C424.961 273.531 425.441 271.879 426.304 270.471C427.167 269.063 428.381 267.897 429.945 266.974C431.531 266.052 433.455 265.392 435.719 264.996C437.982 264.6 440.562 264.477 443.46 264.626C445.015 264.706 446.617 264.917 448.266 265.258C449.914 265.6 451.504 266.055 453.034 266.626L452.26 272.321C450.921 271.761 449.438 271.311 447.811 270.971C446.206 270.61 444.562 270.387 442.879 270.3C439.833 270.143 437.483 270.545 435.832 271.507C434.181 272.447 433.305 273.897 433.204 275.857Z" fill="#19191C"/>
<path d="M510.213 268.579L510.125 270.273C515.151 270.574 518.889 271.611 521.34 273.382C523.812 275.154 524.969 277.574 524.811 280.642C524.654 283.689 523.256 285.956 520.616 287.443C517.998 288.911 514.174 289.536 509.144 289.319L509.06 290.949L501.198 290.544L501.282 288.914C496.256 288.613 492.517 287.597 490.064 285.869C487.612 284.119 486.465 281.721 486.622 278.674C486.78 275.606 488.169 273.317 490.789 271.808C493.409 270.298 497.234 269.651 502.264 269.868L502.351 268.174L510.213 268.579ZM494.771 279.094C494.707 280.33 495.224 281.296 496.32 281.994C497.416 282.691 499.167 283.123 501.572 283.29L501.966 275.652C499.556 275.57 497.77 275.82 496.608 276.401C495.446 276.982 494.834 277.88 494.771 279.094ZM509.434 283.695C511.865 283.777 513.661 283.528 514.823 282.947C515.985 282.366 516.598 281.458 516.662 280.222C516.725 279.008 516.208 278.052 515.111 277.355C514.015 276.657 512.254 276.225 509.827 276.057L509.434 283.695ZM533.148 269.761L548.999 270.578L557.178 293.429L548.294 292.971L546.858 288.507L533.467 287.817L531.58 292.11L522.728 291.654L533.148 269.761ZM545.121 283.035L541.147 270.622L541.019 270.615L535.789 282.554L545.121 283.035ZM567.77 271.545L567.254 281.548L578.188 272.082L587.999 272.587L575.861 282.408L586.91 294.961L577.674 294.485L567.213 282.347L566.617 293.915L558.755 293.51L559.908 271.14L567.77 271.545ZM597.468 278.747L588.105 278.264L588.396 272.608L615.113 273.985L614.821 279.641L605.33 279.152L604.468 295.866L596.607 295.461L597.468 278.747ZM616.989 274.081L624.85 274.487L624.511 281.07L630.231 281.365C634.002 281.559 636.855 282.379 638.788 283.824C640.744 285.249 641.655 287.262 641.521 289.861C641.388 292.439 640.275 294.347 638.182 295.585C636.111 296.802 633.19 297.325 629.418 297.152L615.836 296.452L616.989 274.081ZM629.073 292.039C630.287 292.102 631.269 291.907 632.019 291.454C632.768 291.001 633.168 290.285 633.219 289.305C633.268 288.346 632.943 287.603 632.244 287.076C631.545 286.548 630.588 286.253 629.374 286.191L624.261 285.927L623.959 291.776L629.073 292.039ZM644.312 275.489L652.174 275.895L651.021 298.265L643.16 297.86L644.312 275.489ZM676.951 300.114C674.266 299.975 671.883 299.596 669.8 298.976C667.718 298.335 665.968 297.486 664.548 296.431C663.151 295.355 662.106 294.083 661.412 292.616C660.741 291.129 660.453 289.469 660.547 287.637C660.644 285.762 661.102 284.12 661.923 282.709C662.765 281.279 663.937 280.1 665.437 279.174C666.96 278.227 668.789 277.552 670.925 277.149C673.061 276.725 675.472 276.583 678.156 276.721C680.841 276.859 683.224 277.249 685.306 277.89C687.389 278.51 689.128 279.369 690.524 280.466C691.921 281.542 692.965 282.835 693.657 284.345C694.349 285.833 694.647 287.514 694.55 289.389C694.456 291.222 693.988 292.842 693.146 294.252C692.306 295.639 691.135 296.797 689.635 297.723C688.135 298.629 686.318 299.293 684.181 299.717C682.045 300.12 679.635 300.252 676.951 300.114ZM668.824 288.064C668.732 289.853 669.417 291.277 670.879 292.335C672.341 293.393 674.468 293.994 677.259 294.138C680.05 294.282 682.227 293.902 683.79 293C685.353 292.098 686.181 290.752 686.273 288.963C686.369 287.109 685.686 285.643 684.225 284.564C682.765 283.463 680.639 282.841 677.848 282.697C675.057 282.553 672.879 282.954 671.314 283.898C669.75 284.822 668.92 286.21 668.824 288.064ZM733.493 280.085L732.34 302.455L724.478 302.05L724.879 294.285L711.201 293.58L710.801 301.346L702.939 300.94L704.092 278.57L711.953 278.975L711.507 287.636L725.185 288.341L725.631 279.68L733.493 280.085ZM744.306 280.642L760.156 281.459L768.335 304.31L759.451 303.853L758.015 299.389L744.625 298.699L742.737 302.991L733.885 302.535L744.306 280.642ZM756.278 293.916L752.304 281.503L752.176 281.497L746.947 293.435L756.278 293.916ZM775.75 293.51C775.65 295.448 776.372 296.97 777.918 298.075C779.463 299.18 781.759 299.811 784.805 299.968C786.403 300.051 788.018 300.016 789.649 299.865C791.281 299.693 792.845 299.4 794.341 298.986L794.559 304.701C793.043 305.092 791.448 305.373 789.773 305.543C788.098 305.713 786.44 305.756 784.8 305.672C781.902 305.522 779.348 305.134 777.138 304.508C774.927 303.881 773.08 303.038 771.596 301.979C770.135 300.9 769.048 299.616 768.334 298.126C767.621 296.637 767.312 294.955 767.409 293.08C767.506 291.184 767.987 289.532 768.85 288.123C769.713 286.715 770.926 285.55 772.491 284.626C774.076 283.704 776.001 283.045 778.264 282.649C780.527 282.253 783.108 282.129 786.005 282.279C787.561 282.359 789.163 282.569 790.811 282.911C792.46 283.252 794.049 283.708 795.579 284.278L794.805 289.974C793.467 289.413 791.984 288.963 790.357 288.623C788.752 288.263 787.108 288.039 785.425 287.952C782.378 287.795 780.029 288.198 778.377 289.159C776.727 290.099 775.851 291.55 775.75 293.51Z" fill="#19191C"/>
<path d="M852.758 286.231L852.671 287.925C857.697 288.227 861.435 289.263 863.886 291.034C866.358 292.807 867.515 295.227 867.357 298.295C867.2 301.341 865.801 303.608 863.161 305.096C860.543 306.563 856.72 307.188 851.689 306.972L851.605 308.602L843.744 308.196L843.828 306.567C838.802 306.265 835.063 305.25 832.61 303.521C830.158 301.771 829.01 299.373 829.167 296.327C829.325 293.259 830.714 290.97 833.334 289.46C835.954 287.95 839.779 287.303 844.809 287.52L844.897 285.826L852.758 286.231ZM837.317 296.747C837.253 297.982 837.769 298.949 838.865 299.646C839.962 300.343 841.712 300.775 844.118 300.942L844.511 293.304C842.102 293.223 840.316 293.473 839.154 294.053C837.991 294.634 837.379 295.532 837.317 296.747ZM851.979 301.347C854.41 301.43 856.207 301.181 857.369 300.6C858.531 300.019 859.144 299.11 859.208 297.875C859.27 296.66 858.753 295.704 857.657 295.007C856.561 294.31 854.799 293.877 852.373 293.709L851.979 301.347ZM875.694 287.413L891.545 288.23L899.724 311.081L890.839 310.623L889.403 306.16L876.013 305.47L874.125 309.762L865.273 309.306L875.694 287.413ZM887.666 300.687L883.692 288.274L883.564 288.267L878.335 300.206L887.666 300.687ZM910.315 289.197L909.8 299.2L920.733 289.734L930.544 290.24L918.407 300.06L929.456 312.613L920.22 312.137L909.759 299.999L909.162 311.568L901.301 311.163L902.454 288.792L910.315 289.197ZM940.014 296.399L930.65 295.917L930.942 290.26L957.658 291.637L957.367 297.294L947.875 296.804L947.014 313.518L939.152 313.113L940.014 296.399ZM959.534 291.734L967.396 292.139L967.057 298.722L972.777 299.017C976.548 299.211 979.4 300.031 981.334 301.477C983.29 302.902 984.201 304.914 984.067 307.513C983.934 310.091 982.821 311.999 980.728 313.237C978.657 314.455 975.736 314.977 971.963 314.804L958.381 314.104L959.534 291.734ZM971.618 309.691C972.832 309.754 973.814 309.559 974.564 309.106C975.314 308.654 975.714 307.937 975.764 306.957C975.814 305.998 975.489 305.255 974.79 304.728C974.091 304.201 973.134 303.906 971.919 303.843L966.806 303.58L966.505 309.428L971.618 309.691ZM986.858 293.142L994.72 293.547L993.567 315.917L985.705 315.512L986.858 293.142ZM1019.5 317.766C1016.81 317.628 1014.43 317.249 1012.35 316.629C1010.26 315.987 1008.51 315.139 1007.09 314.083C1005.7 313.007 1004.65 311.735 1003.96 310.269C1003.29 308.781 1003 307.122 1003.09 305.289C1003.19 303.415 1003.65 301.772 1004.47 300.362C1005.31 298.931 1006.48 297.753 1007.98 296.826C1009.51 295.879 1011.33 295.204 1013.47 294.802C1015.61 294.378 1018.02 294.235 1020.7 294.373C1023.39 294.512 1025.77 294.901 1027.85 295.543C1029.93 296.163 1031.67 297.021 1033.07 298.119C1034.47 299.195 1035.51 300.487 1036.2 301.997C1036.89 303.485 1037.19 305.167 1037.1 307.042C1037 308.874 1036.53 310.495 1035.69 311.904C1034.85 313.292 1033.68 314.449 1032.18 315.376C1030.68 316.281 1028.86 316.946 1026.73 317.37C1024.59 317.772 1022.18 317.904 1019.5 317.766ZM1011.37 305.716C1011.28 307.506 1011.96 308.929 1013.42 309.987C1014.89 311.045 1017.01 311.646 1019.8 311.79C1022.6 311.934 1024.77 311.555 1026.34 310.653C1027.9 309.751 1028.73 308.405 1028.82 306.615C1028.91 304.762 1028.23 303.295 1026.77 302.216C1025.31 301.115 1023.18 300.493 1020.39 300.349C1017.6 300.205 1015.42 300.606 1013.86 301.551C1012.3 302.474 1011.47 303.862 1011.37 305.716ZM1076.04 297.738L1074.89 320.108L1067.02 319.703L1067.42 311.937L1053.75 311.232L1053.35 318.998L1045.48 318.593L1046.64 296.222L1054.5 296.628L1054.05 305.288L1067.73 305.993L1068.18 297.332L1076.04 297.738ZM1086.85 298.295L1102.7 299.112L1110.88 321.963L1102 321.505L1100.56 317.041L1087.17 316.351L1085.28 320.644L1076.43 320.187L1086.85 298.295ZM1098.82 311.568L1094.85 299.155L1094.72 299.149L1089.49 311.088L1098.82 311.568ZM1118.3 311.162C1118.2 313.101 1118.92 314.623 1120.46 315.728C1122.01 316.833 1124.3 317.464 1127.35 317.621C1128.95 317.703 1130.56 317.669 1132.19 317.518C1133.83 317.346 1135.39 317.052 1136.89 316.638L1137.1 322.353C1135.59 322.745 1133.99 323.026 1132.32 323.196C1130.64 323.366 1128.99 323.408 1127.35 323.324C1124.45 323.175 1121.89 322.787 1119.68 322.16C1117.47 321.533 1115.63 320.691 1114.14 319.632C1112.68 318.552 1111.59 317.268 1110.88 315.779C1110.17 314.289 1109.86 312.607 1109.95 310.732C1110.05 308.836 1110.53 307.184 1111.4 305.776C1112.26 304.368 1113.47 303.202 1115.04 302.279C1116.62 301.356 1118.55 300.697 1120.81 300.301C1123.07 299.905 1125.65 299.782 1128.55 299.931C1130.11 300.011 1131.71 300.222 1133.36 300.563C1135.01 300.904 1136.59 301.36 1138.12 301.93L1137.35 307.626C1136.01 307.066 1134.53 306.615 1132.9 306.275C1131.3 305.915 1129.65 305.691 1127.97 305.605C1124.92 305.448 1122.57 305.85 1120.92 306.811C1119.27 307.752 1118.4 309.202 1118.3 311.162Z" fill="#19191C"/>
<path d="M1195.3 303.884L1195.22 305.577C1200.24 305.879 1203.98 306.916 1206.43 308.687C1208.9 310.459 1210.06 312.879 1209.9 315.947C1209.75 318.994 1208.35 321.261 1205.71 322.748C1203.09 324.215 1199.27 324.841 1194.23 324.624L1194.15 326.254L1186.29 325.849L1186.37 324.219C1181.35 323.917 1177.61 322.902 1175.16 321.174C1172.7 319.424 1171.56 317.026 1171.71 313.979C1171.87 310.911 1173.26 308.622 1175.88 307.112C1178.5 305.602 1182.32 304.956 1187.35 305.172L1187.44 303.478L1195.3 303.884ZM1179.86 314.399C1179.8 315.635 1180.31 316.601 1181.41 317.298C1182.51 317.996 1184.26 318.428 1186.66 318.594L1187.06 310.957C1184.65 310.875 1182.86 311.125 1181.7 311.706C1180.54 312.287 1179.92 313.184 1179.86 314.399ZM1194.52 319C1196.96 319.082 1198.75 318.833 1199.91 318.252C1201.08 317.671 1201.69 316.763 1201.75 315.527C1201.82 314.313 1201.3 313.357 1200.2 312.659C1199.11 311.962 1197.34 311.529 1194.92 311.362L1194.52 319ZM1218.24 305.066L1234.09 305.882L1242.27 328.734L1233.38 328.276L1231.95 323.812L1218.56 323.122L1216.67 327.414L1207.82 326.958L1218.24 305.066ZM1230.21 318.339L1226.24 305.926L1226.11 305.92L1220.88 317.858L1230.21 318.339ZM1252.86 306.85L1252.35 316.852L1263.28 307.387L1273.09 307.892L1260.95 317.713L1272 330.266L1262.77 329.79L1252.3 317.651L1251.71 329.22L1243.85 328.815L1245 306.445L1252.86 306.85ZM1282.56 314.052L1273.2 313.569L1273.49 307.913L1300.2 309.289L1299.91 314.946L1290.42 314.457L1289.56 331.171L1281.7 330.765L1282.56 314.052ZM1302.08 309.386L1309.94 309.791L1309.6 316.374L1315.32 316.669C1319.09 316.864 1321.95 317.683 1323.88 319.129C1325.84 320.554 1326.75 322.566 1326.61 325.166C1326.48 327.743 1325.37 329.651 1323.27 330.889C1321.2 332.107 1318.28 332.629 1314.51 332.456L1300.93 331.756L1302.08 309.386ZM1314.16 327.344C1315.38 327.406 1316.36 327.211 1317.11 326.759C1317.86 326.306 1318.26 325.59 1318.31 324.61C1318.36 323.651 1318.03 322.908 1317.34 322.38C1316.64 321.853 1315.68 321.558 1314.46 321.496L1309.35 321.232L1309.05 327.08L1314.16 327.344ZM1329.4 310.794L1337.27 311.199L1336.11 333.57L1328.25 333.164L1329.4 310.794ZM1362.04 335.418C1359.36 335.28 1356.97 334.901 1354.89 334.281C1352.81 333.64 1351.06 332.791 1349.64 331.735C1348.24 330.659 1347.2 329.388 1346.5 327.921C1345.83 326.434 1345.54 324.774 1345.64 322.942C1345.73 321.067 1346.19 319.424 1347.01 318.014C1347.86 316.583 1349.03 315.405 1350.53 314.478C1352.05 313.531 1353.88 312.857 1356.02 312.454C1358.15 312.03 1360.56 311.887 1363.25 312.026C1365.93 312.164 1368.32 312.554 1370.4 313.195C1372.48 313.815 1374.22 314.674 1375.62 315.771C1377.01 316.847 1378.06 318.14 1378.75 319.649C1379.44 321.138 1379.74 322.819 1379.64 324.694C1379.55 326.526 1379.08 328.147 1378.24 329.556C1377.4 330.944 1376.23 332.101 1374.73 333.028C1373.23 333.933 1371.41 334.598 1369.27 335.022C1367.14 335.425 1364.73 335.557 1362.04 335.418ZM1353.92 323.368C1353.82 325.158 1354.51 326.582 1355.97 327.64C1357.43 328.698 1359.56 329.299 1362.35 329.442C1365.14 329.586 1367.32 329.207 1368.88 328.305C1370.44 327.403 1371.27 326.057 1371.36 324.267C1371.46 322.414 1370.78 320.948 1369.32 319.868C1367.86 318.768 1365.73 318.145 1362.94 318.002C1360.15 317.858 1357.97 318.258 1356.41 319.203C1354.84 320.126 1354.01 321.515 1353.92 323.368ZM1418.58 315.39L1417.43 337.76L1409.57 337.355L1409.97 329.589L1396.29 328.884L1395.89 336.65L1388.03 336.245L1389.18 313.875L1397.04 314.28L1396.6 322.94L1410.28 323.645L1410.72 314.985L1418.58 315.39ZM1429.4 315.947L1445.25 316.764L1453.43 339.615L1444.54 339.157L1443.11 334.693L1429.72 334.003L1427.83 338.296L1418.98 337.84L1429.4 315.947ZM1441.37 329.221L1437.39 316.808L1437.27 316.801L1432.04 328.74L1441.37 329.221ZM1460.84 328.814C1460.74 330.753 1461.46 332.275 1463.01 333.38C1464.55 334.485 1466.85 335.116 1469.9 335.273C1471.49 335.355 1473.11 335.321 1474.74 335.17C1476.37 334.998 1477.94 334.705 1479.43 334.29L1479.65 340.005C1478.13 340.397 1476.54 340.678 1474.86 340.848C1473.19 341.018 1471.53 341.061 1469.89 340.976C1466.99 340.827 1464.44 340.439 1462.23 339.812C1460.02 339.186 1458.17 338.343 1456.69 337.284C1455.23 336.205 1454.14 334.92 1453.43 333.431C1452.71 331.941 1452.4 330.259 1452.5 328.385C1452.6 326.488 1453.08 324.836 1453.94 323.428C1454.8 322.02 1456.02 320.854 1457.58 319.931C1459.17 319.009 1461.09 318.349 1463.36 317.953C1465.62 317.557 1468.2 317.434 1471.1 317.583C1472.65 317.663 1474.25 317.874 1475.9 318.215C1477.55 318.557 1479.14 319.012 1480.67 319.583L1479.9 325.278C1478.56 324.718 1477.07 324.268 1475.45 323.928C1473.84 323.567 1472.2 323.344 1470.52 323.257C1467.47 323.1 1465.12 323.502 1463.47 324.464C1461.82 325.404 1460.94 326.854 1460.84 328.814Z" fill="#19191C"/>
<path d="M1537.85 321.536L1537.76 323.23C1542.79 323.531 1546.53 324.568 1548.98 326.339C1551.45 328.111 1552.61 330.531 1552.45 333.599C1552.29 336.646 1550.89 338.913 1548.25 340.4C1545.63 341.868 1541.81 342.493 1536.78 342.276L1536.7 343.906L1528.83 343.501L1528.92 341.871C1523.89 341.57 1520.15 340.554 1517.7 338.826C1515.25 337.076 1514.1 334.678 1514.26 331.631C1514.42 328.563 1515.81 326.274 1518.43 324.765C1521.05 323.255 1524.87 322.608 1529.9 322.825L1529.99 321.131L1537.85 321.536ZM1522.41 332.051C1522.34 333.287 1522.86 334.253 1523.96 334.951C1525.05 335.648 1526.8 336.08 1529.21 336.247L1529.6 328.609C1527.19 328.527 1525.41 328.777 1524.24 329.358C1523.08 329.939 1522.47 330.837 1522.41 332.051ZM1537.07 336.652C1539.5 336.734 1541.3 336.485 1542.46 335.904C1543.62 335.323 1544.23 334.415 1544.3 333.179C1544.36 331.965 1543.84 331.009 1542.75 330.312C1541.65 329.614 1539.89 329.182 1537.46 329.014L1537.07 336.652ZM1560.78 322.718L1576.64 323.535L1584.81 346.386L1575.93 345.928L1574.49 341.464L1561.1 340.774L1559.22 345.067L1550.36 344.611L1560.78 322.718ZM1572.76 335.992L1568.78 323.579L1568.66 323.572L1563.43 335.511L1572.76 335.992ZM1595.41 324.502L1594.89 334.505L1605.82 325.039L1615.64 325.544L1603.5 335.365L1614.55 347.918L1605.31 347.442L1594.85 335.304L1594.25 346.872L1586.39 346.467L1587.54 324.097L1595.41 324.502ZM1625.1 331.704L1615.74 331.221L1616.03 325.565L1642.75 326.942L1642.46 332.598L1632.97 332.109L1632.1 348.823L1624.24 348.418L1625.1 331.704ZM1644.63 327.038L1652.49 327.444L1652.15 334.027L1657.87 334.322C1661.64 334.516 1664.49 335.336 1666.42 336.781C1668.38 338.206 1669.29 340.219 1669.16 342.818C1669.02 345.396 1667.91 347.304 1665.82 348.542C1663.75 349.759 1660.83 350.282 1657.05 350.109L1643.47 349.409L1644.63 327.038ZM1656.71 344.996C1657.92 345.059 1658.91 344.864 1659.66 344.411C1660.4 343.958 1660.8 343.242 1660.86 342.262C1660.9 341.303 1660.58 340.56 1659.88 340.033C1659.18 339.505 1658.22 339.21 1657.01 339.148L1651.9 338.884L1651.6 344.733L1656.71 344.996ZM1671.95 328.446L1679.81 328.852L1678.66 351.222L1670.8 350.817L1671.95 328.446ZM1704.59 353.071C1701.9 352.933 1699.52 352.553 1697.44 351.933C1695.35 351.292 1693.6 350.443 1692.18 349.388C1690.79 348.312 1689.74 347.04 1689.05 345.573C1688.38 344.086 1688.09 342.426 1688.18 340.594C1688.28 338.719 1688.74 337.077 1689.56 335.666C1690.4 334.236 1691.57 333.057 1693.07 332.131C1694.6 331.184 1696.43 330.509 1698.56 330.106C1700.7 329.682 1703.11 329.54 1705.79 329.678C1708.48 329.816 1710.86 330.206 1712.94 330.847C1715.03 331.467 1716.76 332.326 1718.16 333.423C1719.56 334.499 1720.6 335.792 1721.29 337.302C1721.99 338.79 1722.28 340.472 1722.19 342.346C1722.09 344.179 1721.62 345.799 1720.78 347.209C1719.94 348.596 1718.77 349.754 1717.27 350.68C1715.77 351.586 1713.95 352.25 1711.82 352.674C1709.68 353.077 1707.27 353.209 1704.59 353.071ZM1696.46 341.021C1696.37 342.81 1697.05 344.234 1698.52 345.292C1699.98 346.35 1702.1 346.951 1704.9 347.095C1707.69 347.239 1709.86 346.859 1711.43 345.957C1712.99 345.055 1713.82 343.709 1713.91 341.92C1714.01 340.066 1713.32 338.6 1711.86 337.521C1710.4 336.42 1708.28 335.798 1705.48 335.654C1702.69 335.51 1700.52 335.911 1698.95 336.855C1697.39 337.779 1696.56 339.167 1696.46 341.021ZM1761.13 333.042L1759.98 355.413L1752.11 355.007L1752.52 347.242L1738.84 346.537L1738.44 354.303L1730.58 353.897L1731.73 331.527L1739.59 331.932L1739.14 340.593L1752.82 341.298L1753.27 332.637L1761.13 333.042ZM1771.94 333.599L1787.79 334.416L1795.97 357.267L1787.09 356.81L1785.65 352.346L1772.26 351.656L1770.37 355.948L1761.52 355.492L1771.94 333.599ZM1783.91 346.873L1779.94 334.46L1779.81 334.454L1774.58 346.392L1783.91 346.873ZM1803.39 346.467C1803.29 348.405 1804.01 349.927 1805.55 351.032C1807.1 352.137 1809.4 352.768 1812.44 352.925C1814.04 353.008 1815.65 352.973 1817.29 352.822C1818.92 352.65 1820.48 352.357 1821.98 351.943L1822.2 357.658C1820.68 358.049 1819.08 358.33 1817.41 358.5C1815.73 358.67 1814.08 358.713 1812.44 358.629C1809.54 358.479 1806.98 358.091 1804.77 357.465C1802.56 356.838 1800.72 355.995 1799.23 354.936C1797.77 353.857 1796.68 352.573 1795.97 351.083C1795.26 349.594 1794.95 347.912 1795.05 346.037C1795.14 344.141 1795.62 342.489 1796.49 341.08C1797.35 339.672 1798.56 338.507 1800.13 337.583C1801.71 336.661 1803.64 336.002 1805.9 335.606C1808.16 335.21 1810.74 335.086 1813.64 335.236C1815.2 335.316 1816.8 335.527 1818.45 335.868C1820.1 336.209 1821.69 336.665 1823.22 337.235L1822.44 342.931C1821.1 342.37 1819.62 341.92 1817.99 341.58C1816.39 341.22 1814.74 340.996 1813.06 340.909C1810.01 340.752 1807.67 341.155 1806.01 342.116C1804.36 343.056 1803.49 344.507 1803.39 346.467Z" fill="#19191C"/>
<path d="M1880.39 339.188L1880.31 340.882C1885.33 341.184 1889.07 342.22 1891.52 343.991C1893.99 345.764 1895.15 348.184 1894.99 351.252C1894.84 354.298 1893.44 356.565 1890.8 358.053C1888.18 359.52 1884.36 360.145 1879.33 359.929L1879.24 361.559L1871.38 361.153L1871.46 359.524C1866.44 359.222 1862.7 358.207 1860.25 356.478C1857.79 354.728 1856.65 352.33 1856.8 349.284C1856.96 346.216 1858.35 343.927 1860.97 342.417C1863.59 340.907 1867.42 340.26 1872.45 340.477L1872.53 338.783L1880.39 339.188ZM1864.95 349.704C1864.89 350.939 1865.41 351.906 1866.5 352.603C1867.6 353.3 1869.35 353.732 1871.75 353.899L1872.15 346.261C1869.74 346.18 1867.95 346.43 1866.79 347.011C1865.63 347.591 1865.02 348.489 1864.95 349.704ZM1879.62 354.304C1882.05 354.387 1883.84 354.138 1885.01 353.557C1886.17 352.976 1886.78 352.067 1886.84 350.832C1886.91 349.617 1886.39 348.661 1885.29 347.964C1884.2 347.267 1882.44 346.834 1880.01 346.666L1879.62 354.304ZM1903.33 340.37L1919.18 341.187L1927.36 364.038L1918.48 363.58L1917.04 359.117L1903.65 358.427L1901.76 362.719L1892.91 362.263L1903.33 340.37ZM1915.3 353.644L1911.33 341.231L1911.2 341.224L1905.97 353.163L1915.3 353.644ZM1937.95 342.154L1937.44 352.157L1948.37 342.691L1958.18 343.197L1946.04 353.017L1957.09 365.57L1947.86 365.095L1937.4 352.956L1936.8 364.525L1928.94 364.12L1930.09 341.749L1937.95 342.154ZM1967.65 349.356L1958.29 348.874L1958.58 343.217L1985.29 344.594L1985 350.251L1975.51 349.761L1974.65 366.475L1966.79 366.07L1967.65 349.356ZM1987.17 344.691L1995.03 345.096L1994.69 351.679L2000.41 351.974C2004.18 352.168 2007.04 352.988 2008.97 354.434C2010.93 355.859 2011.84 357.871 2011.7 360.47C2011.57 363.048 2010.46 364.956 2008.36 366.194C2006.29 367.412 2003.37 367.934 1999.6 367.761L1986.02 367.061L1987.17 344.691ZM1999.25 362.648C2000.47 362.711 2001.45 362.516 2002.2 362.063C2002.95 361.611 2003.35 360.894 2003.4 359.914C2003.45 358.955 2003.13 358.212 2002.43 357.685C2001.73 357.158 2000.77 356.863 1999.56 356.8L1994.44 356.537L1994.14 362.385L1999.25 362.648ZM2014.49 346.099L2022.36 346.504L2021.2 368.874L2013.34 368.469L2014.49 346.099ZM2047.13 370.723C2044.45 370.585 2042.06 370.206 2039.98 369.586C2037.9 368.944 2036.15 368.096 2034.73 367.04C2033.33 365.964 2032.29 364.693 2031.59 363.226C2030.92 361.738 2030.63 360.079 2030.73 358.246C2030.83 356.372 2031.28 354.729 2032.1 353.319C2032.95 351.888 2034.12 350.71 2035.62 349.783C2037.14 348.836 2038.97 348.161 2041.11 347.759C2043.24 347.335 2045.65 347.192 2048.34 347.33C2051.02 347.469 2053.41 347.858 2055.49 348.5C2057.57 349.12 2059.31 349.978 2060.71 351.076C2062.1 352.152 2063.15 353.444 2063.84 354.954C2064.53 356.442 2064.83 358.124 2064.73 359.999C2064.64 361.831 2064.17 363.452 2063.33 364.861C2062.49 366.249 2061.32 367.406 2059.82 368.333C2058.32 369.238 2056.5 369.903 2054.36 370.327C2052.23 370.729 2049.82 370.862 2047.13 370.723ZM2039.01 358.673C2038.91 360.463 2039.6 361.886 2041.06 362.944C2042.52 364.002 2044.65 364.603 2047.44 364.747C2050.23 364.891 2052.41 364.512 2053.97 363.61C2055.54 362.708 2056.36 361.362 2056.46 359.572C2056.55 357.719 2055.87 356.252 2054.41 355.173C2052.95 354.072 2050.82 353.45 2048.03 353.306C2045.24 353.162 2043.06 353.563 2041.5 354.508C2039.93 355.431 2039.1 356.819 2039.01 358.673ZM2103.67 350.695L2102.52 373.065L2094.66 372.66L2095.06 364.894L2081.38 364.189L2080.98 371.955L2073.12 371.55L2074.27 349.179L2082.14 349.585L2081.69 358.245L2095.37 358.95L2095.81 350.289L2103.67 350.695ZM2114.49 351.252L2130.34 352.069L2138.52 374.92L2129.63 374.462L2128.2 369.998L2114.81 369.308L2112.92 373.601L2104.07 373.144L2114.49 351.252ZM2126.46 364.526L2122.49 352.113L2122.36 352.106L2117.13 364.045L2126.46 364.526ZM2145.93 364.119C2145.83 366.058 2146.55 367.58 2148.1 368.685C2149.64 369.79 2151.94 370.421 2154.99 370.578C2156.59 370.66 2158.2 370.626 2159.83 370.475C2161.46 370.303 2163.03 370.009 2164.52 369.595L2164.74 375.31C2163.23 375.702 2161.63 375.983 2159.95 376.153C2158.28 376.323 2156.62 376.365 2154.98 376.281C2152.08 376.132 2149.53 375.744 2147.32 375.117C2145.11 374.49 2143.26 373.648 2141.78 372.589C2140.32 371.509 2139.23 370.225 2138.52 368.736C2137.8 367.246 2137.49 365.564 2137.59 363.689C2137.69 361.793 2138.17 360.141 2139.03 358.733C2139.89 357.325 2141.11 356.159 2142.67 355.236C2144.26 354.313 2146.18 353.654 2148.45 353.258C2150.71 352.862 2153.29 352.739 2156.19 352.888C2157.74 352.968 2159.34 353.179 2160.99 353.52C2162.64 353.861 2164.23 354.317 2165.76 354.887L2164.99 360.583C2163.65 360.023 2162.17 359.573 2160.54 359.232C2158.93 358.872 2157.29 358.648 2155.61 358.562C2152.56 358.405 2150.21 358.807 2148.56 359.769C2146.91 360.709 2146.03 362.159 2145.93 364.119Z" fill="#19191C"/>
<rect width="2452" height="110" transform="translate(-239.016 478.735) rotate(-10.66)" fill="white"/>
<path d="M-154.761 505.207L-154.447 506.873C-149.492 505.984 -145.615 506.112 -142.816 507.256C-139.996 508.397 -138.302 510.477 -137.734 513.496C-137.17 516.494 -137.995 519.027 -140.211 521.093C-142.41 523.135 -145.98 524.643 -150.919 525.616L-150.618 527.22L-158.354 528.676L-158.656 527.072C-163.611 527.962 -167.485 527.855 -170.275 526.752C-173.07 525.629 -174.75 523.568 -175.314 520.57C-175.882 517.551 -175.071 514.999 -172.88 512.915C-170.689 510.831 -167.123 509.303 -162.184 508.33L-162.497 506.663L-154.761 505.207ZM-167.295 519.06C-167.066 520.276 -166.337 521.094 -165.107 521.514C-163.878 521.934 -162.074 521.942 -159.697 521.538L-161.112 514.022C-163.473 514.51 -165.15 515.173 -166.143 516.011C-167.136 516.849 -167.52 517.865 -167.295 519.06ZM-151.961 520.082C-149.579 519.59 -147.892 518.925 -146.899 518.087C-145.906 517.249 -145.524 516.222 -145.753 515.006C-145.978 513.811 -146.705 513.003 -147.935 512.583C-149.164 512.163 -150.978 512.158 -153.376 512.566L-151.961 520.082ZM-132.191 500.958L-116.593 498.022L-103.267 518.307L-112.01 519.953L-114.456 515.952L-127.632 518.433L-128.457 523.049L-137.168 524.689L-132.191 500.958ZM-117.431 511.042L-124.215 499.913L-124.341 499.937L-126.614 512.771L-117.431 511.042ZM-98.1223 494.546L-96.2695 504.389L-87.8703 492.616L-78.2158 490.799L-87.7016 503.199L-74.0094 512.8L-83.0978 514.511L-96.1215 505.175L-93.9787 516.559L-101.715 518.015L-105.858 496.002L-98.1223 494.546ZM-67.563 494.557L-76.7772 496.291L-77.8249 490.725L-51.5346 485.777L-50.4869 491.343L-59.8269 493.101L-56.731 509.548L-64.4672 511.004L-67.563 494.557ZM-49.6885 485.429L-41.9524 483.973L-40.733 490.451L-35.1039 489.392C-31.393 488.693 -28.4279 488.819 -26.2086 489.769C-23.9722 490.694 -22.6133 492.435 -22.1319 494.993C-21.6544 497.529 -22.2872 499.646 -24.0303 501.341C-25.7563 503.012 -28.4728 504.207 -32.1797 504.927L-45.545 507.442L-49.6885 485.429ZM-33.7184 500.039C-32.5234 499.814 -31.6148 499.393 -30.9928 498.777C-30.3707 498.161 -30.1505 497.37 -30.332 496.406C-30.5096 495.462 -31.0001 494.817 -31.8037 494.469C-32.6073 494.121 -33.6066 494.059 -34.8016 494.284L-39.8333 495.231L-38.75 500.986L-33.7184 500.039ZM-22.8007 480.368L-15.0646 478.912L-10.921 500.925L-18.6571 502.381L-22.8007 480.368ZM14.7157 496.621C12.0741 497.118 9.66812 497.31 7.49786 497.198C5.32365 497.064 3.42248 496.652 1.79436 495.959C0.183255 495.242 -1.13187 494.253 -2.15101 492.99C-3.15314 491.702 -3.82389 490.157 -4.16327 488.354C-4.51054 486.509 -4.45146 484.805 -3.98602 483.241C-3.50357 481.653 -2.64226 480.231 -1.4021 478.978C-0.144928 477.699 1.47408 476.613 3.45492 475.719C5.43182 474.804 7.74107 474.098 10.3827 473.601C13.0243 473.104 15.4322 472.922 17.6064 473.055C19.7767 473.168 21.6693 473.593 23.2844 474.331C24.8955 475.048 26.2146 476.059 27.2416 477.363C28.2647 478.647 28.9499 480.211 29.2971 482.056C29.6365 483.859 29.563 485.544 29.0766 487.112C28.5863 488.659 27.721 490.059 26.4808 491.313C25.2367 492.545 23.6262 493.619 21.6493 494.534C19.6685 495.428 17.3573 496.123 14.7157 496.621ZM3.9817 486.821C4.31318 488.582 5.31395 489.805 6.98401 490.489C8.65406 491.173 10.8623 491.257 13.6087 490.74C16.3552 490.223 18.3819 489.342 19.6889 488.098C20.9959 486.853 21.4837 485.35 21.1522 483.589C20.8088 481.765 19.8002 480.501 18.1262 479.795C16.4482 479.069 14.236 478.965 11.4896 479.482C8.74317 479.999 6.7204 480.9 5.42129 482.187C4.11824 483.452 3.63837 484.997 3.9817 486.821ZM64.9569 463.849L69.1005 485.863L61.3644 487.319L59.9259 479.677L46.4663 482.211L47.9047 489.853L40.1686 491.309L36.025 469.295L43.7612 467.839L45.3653 476.361L58.8249 473.828L57.2208 465.306L64.9569 463.849ZM75.5971 461.847L91.1952 458.911L104.521 479.196L95.779 480.841L93.3328 476.841L80.1562 479.321L79.3318 483.937L70.6208 485.577L75.5971 461.847ZM90.3571 471.93L83.5733 460.801L83.4475 460.825L81.1744 473.659L90.3571 471.93ZM109.186 466.953C109.545 468.861 110.606 470.17 112.368 470.881C114.129 471.591 116.509 471.664 119.507 471.1C121.08 470.804 122.641 470.391 124.191 469.86C125.737 469.309 127.188 468.656 128.544 467.901L130.1 473.404C128.72 474.142 127.235 474.79 125.647 475.349C124.059 475.909 122.458 476.34 120.844 476.644C117.993 477.181 115.419 477.405 113.123 477.316C110.827 477.227 108.833 476.843 107.142 476.162C105.468 475.457 104.109 474.465 103.065 473.185C102.021 471.906 101.326 470.343 100.978 468.498C100.627 466.633 100.705 464.914 101.213 463.342C101.72 461.77 102.625 460.352 103.928 459.086C105.252 457.817 106.968 456.723 109.074 455.806C111.181 454.888 113.66 454.161 116.511 453.624C118.041 453.336 119.648 453.164 121.331 453.108C123.013 453.052 124.665 453.121 126.286 453.315L126.874 459.033C125.442 458.803 123.895 458.714 122.233 458.767C120.588 458.794 118.938 458.964 117.282 459.275C114.284 459.84 112.095 460.784 110.716 462.107C109.333 463.409 108.823 465.025 109.186 466.953Z" fill="#121215"/>
<path d="M182.319 441.758L182.633 443.425C187.589 442.536 191.466 442.663 194.265 443.808C197.084 444.949 198.778 447.029 199.347 450.048C199.911 453.046 199.085 455.578 196.869 457.645C194.67 459.687 191.101 461.195 186.161 462.168L186.463 463.772L178.727 465.228L178.425 463.624C173.469 464.514 169.596 464.407 166.805 463.304C164.01 462.18 162.331 460.12 161.767 457.121C161.198 454.103 162.01 451.551 164.201 449.467C166.392 447.383 169.957 445.855 174.897 444.881L174.583 443.215L182.319 441.758ZM169.786 455.612C170.015 456.828 170.744 457.646 171.973 458.066C173.203 458.486 175.006 458.493 177.383 458.089L175.968 450.573C173.607 451.061 171.93 451.724 170.938 452.562C169.945 453.4 169.561 454.417 169.786 455.612ZM185.119 456.633C187.501 456.141 189.189 455.477 190.182 454.638C191.174 453.8 191.556 452.773 191.327 451.557C191.103 450.362 190.375 449.555 189.146 449.135C187.916 448.715 186.102 448.709 183.705 449.117L185.119 456.633ZM204.889 437.51L220.487 434.574L233.813 454.859L225.071 456.505L222.625 452.504L209.448 454.984L208.624 459.601L199.913 461.24L204.889 437.51ZM219.649 447.594L212.865 436.465L212.74 436.488L210.466 449.322L219.649 447.594ZM238.958 431.097L240.811 440.941L249.21 429.168L258.865 427.35L249.379 439.751L263.071 449.352L253.983 451.063L240.959 441.727L243.102 453.111L235.366 454.567L231.222 432.554L238.958 431.097ZM269.518 431.109L260.303 432.843L259.256 427.277L285.546 422.328L286.594 427.895L277.254 429.653L280.35 446.1L272.613 447.556L269.518 431.109ZM287.392 421.981L295.128 420.525L296.348 427.003L301.977 425.943C305.688 425.245 308.653 425.37 310.872 426.32C313.108 427.245 314.467 428.987 314.949 431.544C315.426 434.081 314.793 436.197 313.05 437.893C311.324 439.564 308.608 440.759 304.901 441.478L291.536 443.994L287.392 421.981ZM303.362 436.591C304.557 436.366 305.466 435.945 306.088 435.329C306.71 434.712 306.93 433.922 306.749 432.958C306.571 432.014 306.08 431.368 305.277 431.02C304.473 430.672 303.474 430.611 302.279 430.836L297.247 431.783L298.331 437.538L303.362 436.591ZM314.28 416.92L322.016 415.464L326.16 437.477L318.423 438.933L314.28 416.92ZM351.796 433.172C349.155 433.67 346.749 433.862 344.578 433.75C342.404 433.616 340.503 433.203 338.875 432.511C337.264 431.794 335.949 430.804 334.93 429.542C333.927 428.254 333.257 426.709 332.917 424.906C332.57 423.061 332.629 421.357 333.095 419.793C333.577 418.204 334.438 416.783 335.678 415.529C336.936 414.251 338.555 413.165 340.535 412.271C342.512 411.356 344.822 410.65 347.463 410.153C350.105 409.655 352.513 409.474 354.687 409.607C356.857 409.719 358.75 410.145 360.365 410.883C361.976 411.6 363.295 412.61 364.322 413.915C365.345 415.199 366.03 416.763 366.378 418.608C366.717 420.411 366.644 422.096 366.157 423.664C365.667 425.211 364.802 426.611 363.561 427.864C362.317 429.097 360.707 430.171 358.73 431.086C356.749 431.98 354.438 432.675 351.796 433.172ZM341.062 423.373C341.394 425.134 342.395 426.357 344.065 427.041C345.735 427.725 347.943 427.809 350.689 427.292C353.436 426.775 355.462 425.894 356.769 424.649C358.076 423.405 358.564 421.902 358.233 420.141C357.889 418.317 356.881 417.052 355.207 416.347C353.529 415.621 351.317 415.516 348.57 416.033C345.824 416.55 343.801 417.452 342.502 418.739C341.199 420.004 340.719 421.549 341.062 423.373ZM402.038 400.401L406.181 422.415L398.445 423.871L397.007 416.229L383.547 418.762L384.985 426.404L377.249 427.86L373.106 405.847L380.842 404.391L382.446 412.913L395.906 410.38L394.301 401.857L402.038 400.401ZM412.678 398.398L428.276 395.462L441.602 415.747L432.86 417.393L430.413 413.392L417.237 415.873L416.412 420.489L407.701 422.128L412.678 398.398ZM427.438 408.482L420.654 397.353L420.528 397.377L418.255 410.211L427.438 408.482ZM446.267 403.505C446.626 405.413 447.686 406.722 449.448 407.432C451.21 408.143 453.59 408.216 456.588 407.652C458.16 407.356 459.721 406.942 461.271 406.412C462.817 405.86 464.268 405.207 465.624 404.453L467.181 409.956C465.8 410.693 464.316 411.342 462.728 411.901C461.14 412.46 459.539 412.892 457.925 413.196C455.073 413.733 452.5 413.957 450.204 413.868C447.908 413.779 445.914 413.394 444.223 412.714C442.549 412.009 441.19 411.017 440.146 409.737C439.102 408.457 438.406 406.895 438.059 405.05C437.708 403.184 437.786 401.465 438.293 399.894C438.8 398.322 439.706 396.904 441.009 395.638C442.333 394.369 444.048 393.275 446.155 392.358C448.261 391.44 450.74 390.713 453.592 390.176C455.122 389.888 456.729 389.716 458.411 389.66C460.094 389.604 461.746 389.672 463.367 389.867L463.955 395.585C462.522 395.355 460.975 395.266 459.314 395.319C457.669 395.346 456.018 395.515 454.362 395.827C451.364 396.392 449.176 397.335 447.797 398.659C446.414 399.961 445.904 401.576 446.267 403.505Z" fill="#121215"/>
<path d="M519.4 378.31L519.714 379.977C524.669 379.088 528.547 379.215 531.345 380.36C534.165 381.501 535.859 383.581 536.427 386.6C536.992 389.598 536.166 392.13 533.95 394.197C531.751 396.239 528.182 397.747 523.242 398.72L523.544 400.324L515.807 401.78L515.506 400.176C510.55 401.065 506.677 400.959 503.886 399.856C501.091 398.732 499.411 396.671 498.847 393.673C498.279 390.654 499.09 388.103 501.281 386.019C503.472 383.935 507.038 382.406 511.978 381.433L511.664 379.766L519.4 378.31ZM506.866 392.164C507.095 393.38 507.824 394.198 509.054 394.617C510.284 395.037 512.087 395.045 514.464 394.641L513.049 387.125C510.688 387.613 509.011 388.276 508.018 389.114C507.025 389.952 506.641 390.969 506.866 392.164ZM522.2 393.185C524.582 392.693 526.269 392.028 527.262 391.19C528.255 390.352 528.637 389.325 528.408 388.109C528.183 386.914 527.456 386.107 526.226 385.687C524.997 385.267 523.183 385.261 520.785 385.669L522.2 393.185ZM541.97 374.062L557.568 371.126L570.894 391.411L562.152 393.057L559.705 389.056L546.529 391.536L545.704 396.152L536.993 397.792L541.97 374.062ZM556.73 384.146L549.946 373.016L549.82 373.04L547.547 385.874L556.73 384.146ZM576.039 367.649L577.892 377.492L586.291 365.719L595.945 363.902L586.459 376.303L600.152 385.904L591.063 387.614L578.04 378.279L580.182 389.663L572.446 391.119L568.303 369.105L576.039 367.649ZM606.598 367.661L597.384 369.395L596.336 363.829L622.627 358.88L623.674 364.446L614.334 366.204L617.43 382.652L609.694 384.108L606.598 367.661ZM624.473 358.533L632.209 357.076L633.428 363.555L639.057 362.495C642.768 361.797 645.733 361.922 647.953 362.872C650.189 363.797 651.548 365.538 652.029 368.096C652.507 370.633 651.874 372.749 650.131 374.445C648.405 376.116 645.688 377.311 641.981 378.03L628.616 380.546L624.473 358.533ZM640.443 373.143C641.638 372.918 642.546 372.497 643.168 371.881C643.79 371.264 644.011 370.474 643.829 369.509C643.652 368.566 643.161 367.92 642.357 367.572C641.554 367.224 640.555 367.163 639.36 367.388L634.328 368.335L635.411 374.09L640.443 373.143ZM651.36 353.471L659.097 352.015L663.24 374.029L655.504 375.485L651.36 353.471ZM688.877 369.724C686.235 370.221 683.829 370.414 681.659 370.301C679.485 370.168 677.584 369.755 675.955 369.063C674.344 368.346 673.029 367.356 672.01 366.094C671.008 364.806 670.337 363.261 669.998 361.458C669.651 359.613 669.71 357.908 670.175 356.345C670.658 354.756 671.519 353.335 672.759 352.081C674.016 350.803 675.635 349.716 677.616 348.822C679.593 347.908 681.902 347.202 684.544 346.704C687.185 346.207 689.593 346.025 691.768 346.159C693.938 346.271 695.83 346.696 697.446 347.434C699.057 348.151 700.376 349.162 701.403 350.467C702.426 351.75 703.111 353.315 703.458 355.16C703.798 356.963 703.724 358.648 703.238 360.216C702.747 361.762 701.882 363.163 700.642 364.416C699.398 365.649 697.787 366.723 695.81 367.638C693.83 368.531 691.518 369.227 688.877 369.724ZM678.143 359.925C678.474 361.686 679.475 362.908 681.145 363.593C682.815 364.277 685.023 364.36 687.77 363.843C690.516 363.326 692.543 362.446 693.85 361.201C695.157 359.957 695.645 358.454 695.313 356.693C694.97 354.869 693.961 353.604 692.287 352.899C690.609 352.173 688.397 352.068 685.651 352.585C682.904 353.102 680.882 354.004 679.582 355.29C678.279 356.556 677.8 358.101 678.143 359.925ZM739.118 336.953L743.262 358.966L735.525 360.423L734.087 352.781L720.627 355.314L722.066 362.956L714.33 364.412L710.186 342.399L717.922 340.943L719.526 349.465L732.986 346.931L731.382 338.409L739.118 336.953ZM749.758 334.95L765.356 332.014L778.683 352.299L769.94 353.945L767.494 349.944L754.317 352.424L753.493 357.041L744.782 358.68L749.758 334.95ZM764.518 345.034L757.734 333.905L757.609 333.928L755.335 346.762L764.518 345.034ZM783.347 340.057C783.706 341.965 784.767 343.274 786.529 343.984C788.29 344.695 790.67 344.768 793.668 344.203C795.241 343.907 796.802 343.494 798.352 342.964C799.898 342.412 801.349 341.759 802.705 341.005L804.261 346.508C802.881 347.245 801.396 347.893 799.808 348.453C798.221 349.012 796.619 349.444 795.005 349.748C792.154 350.284 789.58 350.508 787.284 350.42C784.988 350.331 782.995 349.946 781.304 349.266C779.63 348.561 778.27 347.568 777.226 346.289C776.182 345.009 775.487 343.447 775.139 341.602C774.788 339.736 774.866 338.017 775.374 336.446C775.881 334.874 776.786 333.455 778.089 332.19C779.413 330.92 781.129 329.827 783.235 328.909C785.342 327.992 787.821 327.265 790.672 326.728C792.203 326.44 793.809 326.268 795.492 326.212C797.174 326.155 798.826 326.224 800.448 326.418L801.035 332.136C799.603 331.907 798.056 331.818 796.394 331.87C794.749 331.898 793.099 332.067 791.443 332.379C788.445 332.943 786.256 333.887 784.877 335.21C783.494 336.513 782.984 338.128 783.347 340.057Z" fill="#121215"/>
<path d="M856.481 314.862L856.794 316.528C861.75 315.639 865.627 315.767 868.426 316.911C871.246 318.052 872.94 320.132 873.508 323.151C874.072 326.149 873.246 328.681 871.03 330.748C868.832 332.79 865.262 334.298 860.322 335.271L860.624 336.875L852.888 338.331L852.586 336.727C847.63 337.617 843.757 337.51 840.966 336.407C838.172 335.283 836.492 333.223 835.928 330.225C835.359 327.206 836.171 324.654 838.362 322.57C840.553 320.486 844.118 318.958 849.058 317.984L848.744 316.318L856.481 314.862ZM843.947 328.715C844.176 329.931 844.905 330.749 846.135 331.169C847.364 331.589 849.167 331.596 851.544 331.192L850.13 323.676C847.768 324.164 846.091 324.827 845.099 325.665C844.106 326.504 843.722 327.52 843.947 328.715ZM859.28 329.736C861.663 329.245 863.35 328.58 864.343 327.741C865.336 326.903 865.718 325.876 865.489 324.66C865.264 323.465 864.536 322.658 863.307 322.238C862.077 321.818 860.264 321.812 857.866 322.22L859.28 329.736ZM879.05 310.613L894.648 307.677L907.975 327.962L899.232 329.608L896.786 325.607L883.609 328.087L882.785 332.704L874.074 334.343L879.05 310.613ZM893.81 320.697L887.026 309.568L886.901 309.591L884.628 322.425L893.81 320.697ZM913.119 304.2L914.972 314.044L923.371 302.271L933.026 300.453L923.54 312.854L937.232 322.455L928.144 324.166L915.12 314.83L917.263 326.214L909.527 327.67L905.383 305.657L913.119 304.2ZM943.679 304.212L934.464 305.946L933.417 300.38L959.707 295.431L960.755 300.998L951.415 302.756L954.511 319.203L946.775 320.659L943.679 304.212ZM961.553 295.084L969.289 293.628L970.509 300.106L976.138 299.046C979.849 298.348 982.814 298.474 985.033 299.423C987.269 300.348 988.628 302.09 989.11 304.647C989.587 307.184 988.955 309.3 987.211 310.996C985.485 312.667 982.769 313.862 979.062 314.582L965.697 317.097L961.553 295.084ZM977.523 309.694C978.718 309.469 979.627 309.048 980.249 308.432C980.871 307.815 981.091 307.025 980.91 306.061C980.732 305.117 980.242 304.471 979.438 304.123C978.634 303.775 977.635 303.714 976.44 303.939L971.408 304.886L972.492 310.641L977.523 309.694ZM988.441 290.023L996.177 288.567L1000.32 310.58L992.585 312.036L988.441 290.023ZM1025.96 306.275C1023.32 306.773 1020.91 306.965 1018.74 306.853C1016.57 306.719 1014.66 306.306 1013.04 305.614C1011.42 304.897 1010.11 303.907 1009.09 302.645C1008.09 301.357 1007.42 299.812 1007.08 298.009C1006.73 296.164 1006.79 294.46 1007.26 292.896C1007.74 291.307 1008.6 289.886 1009.84 288.632C1011.1 287.354 1012.72 286.268 1014.7 285.374C1016.67 284.459 1018.98 283.753 1021.62 283.256C1024.27 282.758 1026.67 282.577 1028.85 282.71C1031.02 282.822 1032.91 283.248 1034.53 283.986C1036.14 284.703 1037.46 285.714 1038.48 287.018C1039.51 288.302 1040.19 289.866 1040.54 291.711C1040.88 293.514 1040.8 295.199 1040.32 296.767C1039.83 298.314 1038.96 299.714 1037.72 300.967C1036.48 302.2 1034.87 303.274 1032.89 304.189C1030.91 305.083 1028.6 305.778 1025.96 306.275ZM1015.22 296.476C1015.55 298.237 1016.56 299.46 1018.23 300.144C1019.9 300.828 1022.1 300.912 1024.85 300.395C1027.6 299.878 1029.62 298.997 1030.93 297.752C1032.24 296.508 1032.73 295.005 1032.39 293.244C1032.05 291.42 1031.04 290.155 1029.37 289.45C1027.69 288.724 1025.48 288.619 1022.73 289.136C1019.98 289.653 1017.96 290.555 1016.66 291.842C1015.36 293.107 1014.88 294.652 1015.22 296.476ZM1076.2 273.504L1080.34 295.518L1072.61 296.974L1071.17 289.332L1057.71 291.865L1059.15 299.507L1051.41 300.963L1047.27 278.95L1055 277.494L1056.61 286.016L1070.07 283.483L1068.46 274.96L1076.2 273.504ZM1086.84 271.501L1102.44 268.565L1115.76 288.85L1107.02 290.496L1104.57 286.495L1091.4 288.976L1090.57 293.592L1081.86 295.231L1086.84 271.501ZM1101.6 281.585L1094.82 270.456L1094.69 270.48L1092.42 283.314L1101.6 281.585ZM1120.43 276.608C1120.79 278.516 1121.85 279.825 1123.61 280.536C1125.37 281.246 1127.75 281.319 1130.75 280.755C1132.32 280.459 1133.88 280.045 1135.43 279.515C1136.98 278.963 1138.43 278.31 1139.79 277.556L1141.34 283.059C1139.96 283.796 1138.48 284.445 1136.89 285.004C1135.3 285.564 1133.7 285.995 1132.09 286.299C1129.23 286.836 1126.66 287.06 1124.36 286.971C1122.07 286.882 1120.08 286.497 1118.38 285.817C1116.71 285.112 1115.35 284.12 1114.31 282.84C1113.26 281.56 1112.57 279.998 1112.22 278.153C1111.87 276.287 1111.95 274.569 1112.45 272.997C1112.96 271.425 1113.87 270.007 1115.17 268.741C1116.49 267.472 1118.21 266.378 1120.32 265.461C1122.42 264.543 1124.9 263.816 1127.75 263.279C1129.28 262.991 1130.89 262.819 1132.57 262.763C1134.25 262.707 1135.91 262.776 1137.53 262.97L1138.12 268.688C1136.68 268.458 1135.14 268.369 1133.47 268.422C1131.83 268.449 1130.18 268.618 1128.52 268.93C1125.53 269.495 1123.34 270.438 1121.96 271.762C1120.57 273.064 1120.06 274.679 1120.43 276.608Z" fill="#121215"/>
<path d="M1193.56 251.413L1193.87 253.08C1198.83 252.191 1202.71 252.318 1205.51 253.463C1208.33 254.604 1210.02 256.684 1210.59 259.703C1211.15 262.701 1210.33 265.233 1208.11 267.3C1205.91 269.342 1202.34 270.85 1197.4 271.823L1197.7 273.427L1189.97 274.883L1189.67 273.279C1184.71 274.168 1180.84 274.062 1178.05 272.959C1175.25 271.835 1173.57 269.774 1173.01 266.776C1172.44 263.757 1173.25 261.206 1175.44 259.122C1177.63 257.038 1181.2 255.509 1186.14 254.536L1185.82 252.869L1193.56 251.413ZM1181.03 265.267C1181.26 266.483 1181.99 267.301 1183.22 267.721C1184.44 268.14 1186.25 268.148 1188.62 267.744L1187.21 260.228C1184.85 260.716 1183.17 261.379 1182.18 262.217C1181.19 263.055 1180.8 264.072 1181.03 265.267ZM1196.36 266.288C1198.74 265.796 1200.43 265.131 1201.42 264.293C1202.42 263.455 1202.8 262.428 1202.57 261.212C1202.34 260.017 1201.62 259.21 1200.39 258.79C1199.16 258.37 1197.34 258.364 1194.95 258.772L1196.36 266.288ZM1216.13 247.165L1231.73 244.229L1245.06 264.514L1236.31 266.16L1233.87 262.159L1220.69 264.639L1219.87 269.255L1211.15 270.895L1216.13 247.165ZM1230.89 257.249L1224.11 246.12L1223.98 246.143L1221.71 258.977L1230.89 257.249ZM1250.2 240.752L1252.05 250.595L1260.45 238.822L1270.11 237.005L1260.62 249.406L1274.31 259.007L1265.22 260.718L1252.2 251.382L1254.34 262.766L1246.61 264.222L1242.46 242.208L1250.2 240.752ZM1280.76 240.764L1271.55 242.498L1270.5 236.932L1296.79 231.983L1297.84 237.549L1288.5 239.307L1291.59 255.755L1283.86 257.211L1280.76 240.764ZM1298.63 231.636L1306.37 230.179L1307.59 236.658L1313.22 235.598C1316.93 234.9 1319.89 235.025 1322.11 235.975C1324.35 236.9 1325.71 238.641 1326.19 241.199C1326.67 243.736 1326.04 245.852 1324.29 247.548C1322.57 249.219 1319.85 250.414 1316.14 251.133L1302.78 253.649L1298.63 231.636ZM1314.6 246.246C1315.8 246.021 1316.71 245.6 1317.33 244.984C1317.95 244.367 1318.17 243.577 1317.99 242.612C1317.81 241.669 1317.32 241.023 1316.52 240.675C1315.71 240.327 1314.72 240.266 1313.52 240.491L1308.49 241.438L1309.57 247.193L1314.6 246.246ZM1325.52 226.574L1333.26 225.118L1337.4 247.132L1329.67 248.588L1325.52 226.574ZM1363.04 242.827C1360.4 243.324 1357.99 243.517 1355.82 243.404C1353.65 243.271 1351.74 242.858 1350.12 242.166C1348.51 241.449 1347.19 240.459 1346.17 239.197C1345.17 237.909 1344.5 236.364 1344.16 234.561C1343.81 232.716 1343.87 231.011 1344.34 229.448C1344.82 227.859 1345.68 226.438 1346.92 225.184C1348.18 223.906 1349.8 222.819 1351.78 221.925C1353.75 221.011 1356.06 220.305 1358.7 219.807C1361.35 219.31 1363.75 219.128 1365.93 219.262C1368.1 219.374 1369.99 219.799 1371.61 220.537C1373.22 221.254 1374.54 222.265 1375.56 223.57C1376.59 224.853 1377.27 226.418 1377.62 228.263C1377.96 230.066 1377.89 231.751 1377.4 233.319C1376.91 234.865 1376.04 236.266 1374.8 237.519C1373.56 238.752 1371.95 239.826 1369.97 240.741C1367.99 241.634 1365.68 242.33 1363.04 242.827ZM1352.3 233.028C1352.64 234.789 1353.64 236.011 1355.31 236.696C1356.98 237.38 1359.18 237.463 1361.93 236.946C1364.68 236.429 1366.7 235.549 1368.01 234.304C1369.32 233.06 1369.81 231.557 1369.47 229.796C1369.13 227.972 1368.12 226.707 1366.45 226.002C1364.77 225.276 1362.56 225.171 1359.81 225.688C1357.07 226.205 1355.04 227.107 1353.74 228.393C1352.44 229.659 1351.96 231.204 1352.3 233.028ZM1413.28 210.056L1417.42 232.069L1409.69 233.526L1408.25 225.884L1394.79 228.417L1396.23 236.059L1388.49 237.515L1384.35 215.502L1392.08 214.046L1393.69 222.568L1407.15 220.034L1405.54 211.512L1413.28 210.056ZM1423.92 208.053L1439.52 205.117L1452.84 225.402L1444.1 227.048L1441.66 223.047L1428.48 225.527L1427.65 230.144L1418.94 231.783L1423.92 208.053ZM1438.68 218.137L1431.9 207.008L1431.77 207.031L1429.5 219.865L1438.68 218.137ZM1457.51 213.16C1457.87 215.068 1458.93 216.377 1460.69 217.087C1462.45 217.798 1464.83 217.871 1467.83 217.306C1469.4 217.01 1470.96 216.597 1472.51 216.067C1474.06 215.515 1475.51 214.862 1476.87 214.108L1478.42 219.611C1477.04 220.348 1475.56 220.996 1473.97 221.556C1472.38 222.115 1470.78 222.547 1469.17 222.851C1466.31 223.387 1463.74 223.611 1461.45 223.523C1459.15 223.434 1457.16 223.049 1455.46 222.369C1453.79 221.664 1452.43 220.671 1451.39 219.392C1450.34 218.112 1449.65 216.55 1449.3 214.705C1448.95 212.839 1449.03 211.12 1449.53 209.549C1450.04 207.977 1450.95 206.558 1452.25 205.293C1453.57 204.023 1455.29 202.93 1457.4 202.012C1459.5 201.095 1461.98 200.368 1464.83 199.831C1466.36 199.543 1467.97 199.371 1469.65 199.315C1471.34 199.258 1472.99 199.327 1474.61 199.521L1475.2 205.239C1473.76 205.01 1472.22 204.921 1470.56 204.973C1468.91 205.001 1467.26 205.17 1465.6 205.482C1462.61 206.046 1460.42 206.99 1459.04 208.313C1457.66 209.616 1457.15 211.231 1457.51 213.16Z" fill="#121215"/>
<path d="M1530.64 187.965L1530.96 189.632C1535.91 188.742 1539.79 188.87 1542.59 190.015C1545.41 191.156 1547.1 193.235 1547.67 196.254C1548.23 199.252 1547.41 201.785 1545.19 203.852C1542.99 205.894 1539.42 207.401 1534.48 208.375L1534.79 209.978L1527.05 211.435L1526.75 209.831C1521.79 210.72 1517.92 210.613 1515.13 209.511C1512.33 208.387 1510.65 206.326 1510.09 203.328C1509.52 200.309 1510.33 197.758 1512.52 195.674C1514.71 193.59 1518.28 192.061 1523.22 191.088L1522.91 189.421L1530.64 187.965ZM1518.11 201.819C1518.34 203.035 1519.07 203.852 1520.3 204.272C1521.53 204.692 1523.33 204.7 1525.71 204.296L1524.29 196.78C1521.93 197.268 1520.25 197.931 1519.26 198.769C1518.27 199.607 1517.88 200.624 1518.11 201.819ZM1533.44 202.84C1535.82 202.348 1537.51 201.683 1538.5 200.845C1539.5 200.007 1539.88 198.98 1539.65 197.764C1539.42 196.569 1538.7 195.761 1537.47 195.342C1536.24 194.922 1534.42 194.916 1532.03 195.324L1533.44 202.84ZM1553.21 183.717L1568.81 180.781L1582.14 201.066L1573.39 202.711L1570.95 198.711L1557.77 201.191L1556.95 205.807L1548.24 207.447L1553.21 183.717ZM1567.97 193.8L1561.19 182.671L1561.06 182.695L1558.79 195.529L1567.97 193.8ZM1587.28 177.304L1589.13 187.147L1597.53 175.374L1607.19 173.557L1597.7 185.958L1611.39 195.559L1602.31 197.269L1589.28 187.933L1591.42 199.317L1583.69 200.774L1579.54 178.76L1587.28 177.304ZM1617.84 177.315L1608.63 179.05L1607.58 173.483L1633.87 168.535L1634.92 174.101L1625.58 175.859L1628.67 192.306L1620.94 193.762L1617.84 177.315ZM1635.71 168.187L1643.45 166.731L1644.67 173.209L1650.3 172.15C1654.01 171.451 1656.97 171.577 1659.19 172.527C1661.43 173.452 1662.79 175.193 1663.27 177.751C1663.75 180.288 1663.12 182.404 1661.37 184.1C1659.65 185.77 1656.93 186.966 1653.22 187.685L1639.86 190.201L1635.71 168.187ZM1651.68 182.797C1652.88 182.572 1653.79 182.152 1654.41 181.535C1655.03 180.919 1655.25 180.129 1655.07 179.164C1654.89 178.221 1654.4 177.575 1653.6 177.227C1652.8 176.879 1651.8 176.817 1650.6 177.042L1645.57 177.989L1646.65 183.744L1651.68 182.797ZM1662.6 163.126L1670.34 161.67L1674.48 183.684L1666.75 185.14L1662.6 163.126ZM1700.12 179.379C1697.48 179.876 1695.07 180.069 1692.9 179.956C1690.73 179.823 1688.83 179.41 1687.2 178.718C1685.59 178.001 1684.27 177.011 1683.25 175.748C1682.25 174.461 1681.58 172.916 1681.24 171.113C1680.89 169.268 1680.95 167.563 1681.42 165.999C1681.9 164.411 1682.76 162.99 1684 161.736C1685.26 160.457 1686.88 159.371 1688.86 158.477C1690.83 157.562 1693.14 156.856 1695.79 156.359C1698.43 155.862 1700.84 155.68 1703.01 155.814C1705.18 155.926 1707.07 156.351 1708.69 157.089C1710.3 157.806 1711.62 158.817 1712.64 160.122C1713.67 161.405 1714.35 162.969 1714.7 164.814C1715.04 166.617 1714.97 168.303 1714.48 169.87C1713.99 171.417 1713.12 172.817 1711.88 174.071C1710.64 175.304 1709.03 176.378 1707.05 177.292C1705.07 178.186 1702.76 178.882 1700.12 179.379ZM1689.38 169.579C1689.72 171.34 1690.72 172.563 1692.39 173.247C1694.06 173.932 1696.27 174.015 1699.01 173.498C1701.76 172.981 1703.78 172.1 1705.09 170.856C1706.4 169.611 1706.89 168.108 1706.56 166.347C1706.21 164.523 1705.2 163.259 1703.53 162.554C1701.85 161.828 1699.64 161.723 1696.89 162.24C1694.15 162.757 1692.12 163.659 1690.82 164.945C1689.52 166.211 1689.04 167.755 1689.38 169.579ZM1750.36 146.608L1754.5 168.621L1746.77 170.077L1745.33 162.436L1731.87 164.969L1733.31 172.611L1725.57 174.067L1721.43 152.054L1729.16 150.597L1730.77 159.12L1744.23 156.586L1742.62 148.064L1750.36 146.608ZM1761 144.605L1776.6 141.669L1789.92 161.954L1781.18 163.599L1778.74 159.599L1765.56 162.079L1764.73 166.695L1756.02 168.335L1761 144.605ZM1775.76 154.689L1768.98 143.559L1768.85 143.583L1766.58 156.417L1775.76 154.689ZM1794.59 149.712C1794.95 151.62 1796.01 152.929 1797.77 153.639C1799.53 154.349 1801.91 154.422 1804.91 153.858C1806.48 153.562 1808.04 153.149 1809.59 152.618C1811.14 152.067 1812.59 151.414 1813.95 150.659L1815.5 156.162C1814.12 156.9 1812.64 157.548 1811.05 158.108C1809.46 158.667 1807.86 159.099 1806.25 159.403C1803.4 159.939 1800.82 160.163 1798.53 160.074C1796.23 159.986 1794.24 159.601 1792.55 158.921C1790.87 158.216 1789.51 157.223 1788.47 155.944C1787.42 154.664 1786.73 153.102 1786.38 151.257C1786.03 149.391 1786.11 147.672 1786.62 146.1C1787.12 144.529 1788.03 143.11 1789.33 141.845C1790.66 140.575 1792.37 139.482 1794.48 138.564C1796.58 137.647 1799.06 136.919 1801.91 136.383C1803.44 136.095 1805.05 135.923 1806.73 135.866C1808.42 135.81 1810.07 135.879 1811.69 136.073L1812.28 141.791C1810.84 141.561 1809.3 141.473 1807.64 141.525C1805.99 141.552 1804.34 141.722 1802.68 142.034C1799.69 142.598 1797.5 143.542 1796.12 144.865C1794.74 146.167 1794.23 147.783 1794.59 149.712Z" fill="#121215"/>
<path d="M1867.72 124.517L1868.04 126.184C1872.99 125.294 1876.87 125.422 1879.67 126.567C1882.49 127.707 1884.18 129.787 1884.75 132.806C1885.31 135.804 1884.49 138.337 1882.27 140.404C1880.07 142.446 1876.5 143.953 1871.56 144.926L1871.87 146.53L1864.13 147.986L1863.83 146.383C1858.87 147.272 1855 147.165 1852.21 146.062C1849.41 144.939 1847.73 142.878 1847.17 139.88C1846.6 136.861 1847.41 134.309 1849.6 132.225C1851.79 130.142 1855.36 128.613 1860.3 127.64L1859.99 125.973L1867.72 124.517ZM1855.19 138.37C1855.42 139.586 1856.15 140.404 1857.38 140.824C1858.61 141.244 1860.41 141.252 1862.79 140.848L1861.37 133.332C1859.01 133.82 1857.33 134.483 1856.34 135.321C1855.35 136.159 1854.96 137.175 1855.19 138.37ZM1870.52 139.392C1872.9 138.9 1874.59 138.235 1875.58 137.397C1876.58 136.559 1876.96 135.532 1876.73 134.316C1876.51 133.121 1875.78 132.313 1874.55 131.893C1873.32 131.474 1871.51 131.468 1869.11 131.876L1870.52 139.392ZM1890.29 120.269L1905.89 117.333L1919.22 137.617L1910.47 139.263L1908.03 135.263L1894.85 137.743L1894.03 142.359L1885.32 143.999L1890.29 120.269ZM1905.05 130.352L1898.27 119.223L1898.14 119.247L1895.87 132.081L1905.05 130.352ZM1924.36 113.856L1926.21 123.699L1934.61 111.926L1944.27 110.109L1934.78 122.509L1948.47 132.11L1939.39 133.821L1926.36 124.485L1928.5 135.869L1920.77 137.325L1916.62 115.312L1924.36 113.856ZM1954.92 113.867L1945.71 115.601L1944.66 110.035L1970.95 105.087L1972 110.653L1962.66 112.411L1965.75 128.858L1958.02 130.314L1954.92 113.867ZM1972.79 104.739L1980.53 103.283L1981.75 109.761L1987.38 108.702C1991.09 108.003 1994.06 108.129 1996.27 109.079C1998.51 110.004 1999.87 111.745 2000.35 114.303C2000.83 116.839 2000.2 118.956 1998.45 120.651C1996.73 122.322 1994.01 123.517 1990.3 124.237L1976.94 126.753L1972.79 104.739ZM1988.77 119.349C1989.96 119.124 1990.87 118.703 1991.49 118.087C1992.11 117.471 1992.33 116.68 1992.15 115.716C1991.97 114.773 1991.48 114.127 1990.68 113.779C1989.88 113.431 1988.88 113.369 1987.68 113.594L1982.65 114.541L1983.73 120.296L1988.77 119.349ZM1999.68 99.678L2007.42 98.2218L2011.56 120.235L2003.83 121.691L1999.68 99.678ZM2037.2 115.931C2034.56 116.428 2032.15 116.62 2029.98 116.508C2027.81 116.374 2025.91 115.962 2024.28 115.269C2022.67 114.552 2021.35 113.563 2020.33 112.3C2019.33 111.013 2018.66 109.467 2018.32 107.664C2017.97 105.819 2018.03 104.115 2018.5 102.551C2018.98 100.963 2019.84 99.5414 2021.08 98.2877C2022.34 97.0091 2023.96 95.9228 2025.94 95.029C2027.92 94.1142 2030.22 93.4082 2032.87 92.9109C2035.51 92.4137 2037.92 92.2318 2040.09 92.3653C2042.26 92.4778 2044.15 92.903 2045.77 93.641C2047.38 94.358 2048.7 95.3688 2049.72 96.6733C2050.75 97.9569 2051.43 99.5211 2051.78 101.366C2052.12 103.169 2052.05 104.854 2051.56 106.422C2051.07 107.969 2050.2 109.369 2048.96 110.623C2047.72 111.856 2046.11 112.929 2044.13 113.844C2042.15 114.738 2039.84 115.433 2037.2 115.931ZM2026.47 106.131C2026.8 107.892 2027.8 109.115 2029.47 109.799C2031.14 110.483 2033.35 110.567 2036.09 110.05C2038.84 109.533 2040.87 108.652 2042.17 107.408C2043.48 106.163 2043.97 104.66 2043.64 102.899C2043.29 101.075 2042.28 99.8106 2040.61 99.1055C2038.93 98.3793 2036.72 98.2747 2033.97 98.7917C2031.23 99.3086 2029.2 100.21 2027.9 101.497C2026.6 102.762 2026.12 104.307 2026.47 106.131ZM2087.44 83.1595L2091.58 105.173L2083.85 106.629L2082.41 98.9873L2068.95 101.521L2070.39 109.163L2062.65 110.619L2058.51 88.6053L2066.24 87.1491L2067.85 95.6715L2081.31 93.138L2079.7 84.6156L2087.44 83.1595ZM2098.08 81.1567L2113.68 78.2207L2127 98.5057L2118.26 100.151L2115.82 96.1507L2102.64 98.6309L2101.82 103.247L2093.1 104.887L2098.08 81.1567ZM2112.84 91.2404L2106.06 80.1112L2105.93 80.1349L2103.66 92.9689L2112.84 91.2404ZM2131.67 86.2635C2132.03 88.1713 2133.09 89.4804 2134.85 90.1908C2136.61 90.9011 2138.99 90.9742 2141.99 90.4099C2143.56 90.1139 2145.12 89.7006 2146.67 89.1701C2148.22 88.6186 2149.67 87.9656 2151.03 87.2111L2152.58 92.7141C2151.2 93.4516 2149.72 94.1 2148.13 94.6594C2146.54 95.2188 2144.94 95.6504 2143.33 95.9543C2140.48 96.491 2137.9 96.7149 2135.61 96.6261C2133.31 96.5373 2131.32 96.1528 2129.63 95.4725C2127.95 94.7673 2126.59 93.7749 2125.55 92.4953C2124.5 91.2157 2123.81 89.6534 2123.46 87.8085C2123.11 85.9426 2123.19 84.2238 2123.7 82.6521C2124.2 81.0805 2125.11 79.6619 2126.41 78.3964C2127.74 77.1269 2129.45 76.0334 2131.56 75.1158C2133.66 74.1983 2136.14 73.4712 2138.99 72.9345C2140.52 72.6464 2142.13 72.4743 2143.81 72.4181C2145.5 72.3618 2147.15 72.4308 2148.77 72.6249L2149.36 78.3429C2147.93 78.1132 2146.38 78.0245 2144.72 78.0768C2143.07 78.1042 2141.42 78.2737 2139.76 78.5855C2136.77 79.1498 2134.58 80.0936 2133.2 81.4169C2131.82 82.7192 2131.31 84.3347 2131.67 86.2635Z" fill="#121215"/>
</svg>
